<?xml version="1.0" standalone="no"?>
<!DOCTYPE svg PUBLIC "-//W3C//DTD SVG 20010904//EN"
 "http://www.w3.org/TR/2001/REC-SVG-20010904/DTD/svg10.dtd">
<svg version="1.0" xmlns="http://www.w3.org/2000/svg"
 width="1024.000000pt" height="1536.000000pt" viewBox="0 0 1024.000000 1536.000000"
 preserveAspectRatio="xMidYMid meet">

<g transform="translate(0.000000,1536.000000) scale(0.100000,-0.100000)"
fill="#000000" stroke="none">
<path d="M3020 12726 c-119 -32 -218 -143 -249 -276 -6 -25 -11 -163 -11 -307
l0 -262 -337 -3 c-313 -4 -343 -6 -411 -26 -237 -72 -433 -252 -518 -478 -57
-152 -54 50 -54 -3334 0 -3432 -4 -3206 61 -3369 43 -109 119 -218 213 -309
99 -95 188 -150 316 -194 l95 -33 2985 0 2985 0 88 28 c292 91 490 292 584
594 l28 88 0 3195 0 3195 -34 99 c-95 274 -320 472 -603 530 -60 13 -143 16
-377 16 l-300 0 -3 293 -3 293 -32 65 c-39 79 -102 140 -181 177 -57 27 -58
27 -339 30 -318 4 -355 -1 -451 -64 -64 -42 -126 -132 -141 -205 -6 -29 -11
-165 -11 -319 l0 -270 -1200 0 -1200 0 0 268 c0 333 -10 378 -103 479 -46 50
-97 79 -172 99 -67 18 -560 18 -625 0z m540 -1011 c0 -642 0 -655 -20 -675
-15 -15 -33 -20 -70 -20 l-50 0 0 150 c0 147 -1 152 -25 175 -13 14 -35 25
-49 25 -73 0 -86 -32 -86 -210 l0 -140 -54 0 c-93 0 -86 -58 -86 691 l0 659
220 0 220 0 0 -655z m3570 0 c0 -642 0 -655 -20 -675 -15 -15 -33 -20 -75 -20
l-55 0 0 150 c0 147 -1 152 -25 175 -25 26 -63 32 -95 15 -29 -16 -40 -73 -40
-212 l0 -128 -52 0 c-96 0 -88 -60 -88 692 l0 658 225 0 225 0 0 -655z m-4370
-442 c0 -142 5 -278 11 -303 26 -115 109 -219 213 -267 l61 -28 295 0 295 0
62 29 c76 35 153 113 191 193 l27 58 3 288 3 287 1199 0 1199 0 3 -287 3 -288
32 -67 c39 -82 100 -145 179 -184 l59 -29 305 0 305 0 57 28 c76 37 140 102
180 185 l33 67 3 287 3 288 267 0 c147 0 296 -5 331 -11 186 -30 337 -185 370
-380 7 -41 11 -223 11 -482 l0 -417 -3335 0 -3335 0 0 454 c0 423 1 458 20
517 48 157 179 279 330 308 25 5 174 9 333 10 l287 1 0 -257z m5698 -3875 l-3
-2493 -23 -65 c-62 -171 -198 -293 -374 -335 -55 -13 -425 -15 -2938 -15
-3143 0 -2948 -3 -3070 57 -106 54 -212 190 -246 317 -11 42 -14 467 -14 2539
l0 2487 3335 0 3335 0 -2 -2492z"/>
<path d="M2750 9699 c-88 -15 -210 -80 -268 -144 -143 -156 -172 -411 -69
-599 l35 -62 -56 -29 c-66 -35 -123 -103 -153 -185 l-22 -60 -58 0 c-131 0
-139 -15 -139 -280 0 -273 8 -290 134 -290 l66 0 -2 -1172 -3 -1173 -41 3
c-23 2 -60 -1 -82 -7 -65 -18 -72 -43 -72 -278 0 -268 13 -293 151 -293 l67 0
6 -43 c16 -108 98 -223 193 -271 83 -42 145 -48 448 -44 267 3 283 5 340 27
110 44 205 168 222 287 l6 44 49 0 c61 0 109 19 134 55 l20 27 52 -71 c180
-242 495 -378 789 -341 372 46 670 305 759 660 29 115 27 349 -5 451 l-23 75
146 200 c81 109 174 237 207 282 34 46 65 80 69 75 4 -4 100 -137 213 -295
l207 -287 -17 -68 c-12 -49 -17 -109 -17 -213 0 -127 3 -157 27 -245 82 -299
323 -534 632 -616 112 -30 317 -30 427 -1 336 90 586 349 648 670 60 309 -24
592 -240 810 -242 245 -607 328 -923 211 -33 -13 -62 -18 -66 -13 -42 47
-1436 2013 -1921 2707 -95 137 -183 255 -196 264 -35 23 -87 10 -116 -30 -70
-93 -127 -231 -148 -357 -16 -94 -7 -248 19 -353 39 -151 9 -104 777 -1197
149 -212 335 -475 414 -585 78 -110 144 -205 147 -212 7 -17 -26 -62 -58 -79
-54 -27 -70 -13 -196 164 -65 91 -121 170 -125 176 -5 7 -13 4 -23 -9 -21 -27
-160 -222 -263 -370 -47 -66 -86 -122 -88 -124 -2 -2 -29 6 -61 18 -145 53
-350 68 -486 37 -348 -81 -612 -356 -672 -701 -8 -48 -15 -98 -15 -111 0 -19
-5 -24 -25 -24 l-25 0 0 1170 0 1170 61 0 c54 0 64 3 90 29 l29 29 0 226 c0
222 0 225 -24 253 -21 24 -32 28 -94 31 l-71 4 -16 47 c-31 92 -103 174 -187
212 l-27 12 25 36 c60 91 87 247 65 366 -14 76 -67 187 -117 244 -105 120
-300 188 -464 160z m220 -255 c151 -82 185 -302 67 -431 -55 -60 -113 -85
-194 -85 -116 0 -205 63 -249 178 -22 58 -15 173 14 229 68 133 229 181 362
109z m1571 -516 c73 -106 196 -283 274 -393 77 -110 221 -315 320 -455 358
-511 832 -1175 1221 -1709 65 -91 122 -169 125 -173 3 -5 36 9 72 32 85 54
187 89 296 102 291 36 587 -161 686 -457 114 -338 -67 -696 -414 -819 -79 -28
-97 -30 -211 -30 -108 0 -136 4 -206 27 -313 104 -497 415 -440 744 9 50 26
115 39 144 l23 53 -536 750 c-463 648 -1029 1450 -1294 1834 -91 132 -115 194
-123 311 -6 86 11 231 27 231 4 0 68 -87 141 -192z m-1333 -273 l37 -34 -397
-1 c-219 0 -398 4 -398 8 0 13 32 40 60 51 15 6 158 10 343 10 l317 1 38 -35z
m232 -320 l0 -65 -595 0 -595 0 0 65 0 65 595 0 595 0 0 -65z m-795 -385
c-110 -55 -203 -99 -207 -99 -5 -1 -8 44 -8 99 l0 100 208 -1 207 -1 -200 -98z
m615 -361 l0 -190 -33 -14 c-18 -7 -203 -97 -411 -199 -209 -102 -381 -186
-383 -186 -2 0 -2 86 -1 192 l3 191 405 198 c223 109 408 198 413 199 4 0 7
-86 7 -191z m0 -848 l0 -188 -267 -128 c-148 -70 -330 -159 -405 -196 -76 -38
-142 -69 -148 -69 -6 0 -10 65 -10 180 l0 181 413 204 c226 112 413 204 415
204 1 1 2 -84 2 -188z m1328 -432 c180 -56 324 -174 401 -330 54 -111 71 -183
71 -300 0 -177 -51 -313 -164 -436 -256 -280 -680 -294 -947 -31 -111 109
-170 234 -189 396 -40 353 188 659 538 722 69 13 213 2 290 -21z m-1328 -414
l0 -185 -377 1 -378 0 369 185 c203 101 373 184 377 184 5 0 9 -83 9 -185z
m188 -477 l3 -68 -606 0 -605 0 0 70 0 70 603 -2 602 -3 3 -67z m-218 -304 c0
-31 -31 -80 -63 -99 -29 -18 -55 -20 -301 -23 -334 -4 -360 2 -401 101 l-15
37 390 0 c351 0 390 -2 390 -16z"/>
<path d="M6810 6179 c-25 -5 -78 -25 -118 -45 -257 -126 -355 -436 -220 -696
125 -241 410 -332 656 -212 307 150 379 570 138 809 -124 123 -291 176 -456
144z m216 -237 c60 -30 128 -109 149 -171 36 -111 5 -237 -77 -307 -153 -129
-392 -67 -454 118 -23 69 -16 168 16 232 31 61 99 122 159 141 60 19 155 14
207 -13z"/>
<path d="M4286 6174 c-260 -63 -430 -353 -361 -618 33 -127 102 -225 205 -294
196 -131 446 -111 616 50 139 131 191 307 145 488 -26 104 -68 175 -146 249
-128 120 -294 165 -459 125z m256 -241 c163 -92 198 -302 72 -442 -114 -127
-310 -126 -420 3 -111 130 -73 345 77 439 76 46 188 46 271 0z"/>
<path d="M6868 9458 c-14 -12 -109 -142 -210 -288 -219 -314 -325 -464 -735
-1042 -88 -124 -164 -231 -167 -237 -4 -6 76 -127 178 -269 230 -318 233 -322
245 -302 5 9 72 103 148 210 119 167 460 647 572 805 196 277 234 377 234 605
0 162 -19 245 -90 392 -51 107 -74 135 -119 144 -24 4 -37 0 -56 -18z"/>
</g>
</svg>
